<?xml version="1.0" standalone="no"?>
<!DOCTYPE svg PUBLIC "-//W3C//DTD SVG 20010904//EN"
 "http://www.w3.org/TR/2001/REC-SVG-20010904/DTD/svg10.dtd">
<svg version="1.0" xmlns="http://www.w3.org/2000/svg"
 width="512.000000pt" height="512.000000pt" viewBox="0 0 512.000000 512.000000"
 preserveAspectRatio="xMidYMid meet">
<metadata>
Created by potrace 1.11, written by Peter Selinger 2001-2013
</metadata>
<g transform="translate(0.000000,512.000000) scale(0.100000,-0.100000)"
fill="#000000" stroke="none">
<path d="M0 4553 l0 -568 565 565 c311 311 565 566 565 567 0 2 -254 3 -565 3
l-565 0 0 -567z"/>
<path d="M1137 3982 l-1137 -1137 2 -567 3 -567 1704 1705 1705 1704 -570 0
-569 0 -1138 -1138z"/>
<path d="M2276 2844 l-2276 -2275 0 -285 0 -284 284 0 285 0 2275 2276 2276
2276 0 284 0 284 -284 0 -284 0 -2276 -2276z"/>
<path d="M3411 1704 l-1705 -1704 570 0 569 0 1138 1138 1137 1137 -2 567 -3
566 -1704 -1704z"/>
<path d="M4550 565 l-565 -565 568 0 567 0 0 565 c0 311 -1 565 -3 565 -1 0
-256 -254 -567 -565z"/>
</g>
</svg>
